<?xml version="1.0" encoding="utf-8"?>
<!-- Generator: Adobe Illustrator 16.0.0, SVG Export Plug-In . SVG Version: 6.00 Build 0)  -->
<!DOCTYPE svg PUBLIC "-//W3C//DTD SVG 1.1//EN" "http://www.w3.org/Graphics/SVG/1.1/DTD/svg11.dtd">
<svg version="1.1" id="Layer_1" xmlns="http://www.w3.org/2000/svg" xmlns:xlink="http://www.w3.org/1999/xlink" x="0px" y="0px"
	 width="111.25px" height="25.5px" viewBox="0 0 111.25 25.5" enable-background="new 0 0 111.25 25.5" xml:space="preserve">
<polygon fill="#888888" points="8.5,25.5 111.25,25.5 111.25,0 0,0 "/>
<polygon fill="#FFFFFF" points="9.737,24 1.656,0 111.25,0 111.25,24 "/>
<g enable-background="new    ">
	<path fill="#888888" d="M20.775,13.763v2.975h-1.943v-2.998l-3.25-5.397h2.063l2.243,3.73l2.243-3.73h1.907L20.775,13.763z"/>
	<path fill="#888888" d="M23.97,12.54c0-2.495,1.943-4.342,4.593-4.342c2.639,0,4.594,1.835,4.594,4.342
		c0,2.506-1.955,4.341-4.594,4.341C25.913,16.881,23.97,15.034,23.97,12.54z M31.19,12.54c0-1.596-1.127-2.687-2.627-2.687
		c-1.499,0-2.626,1.091-2.626,2.687c0,1.595,1.127,2.687,2.626,2.687C30.063,15.227,31.19,14.135,31.19,12.54z"/>
	<path fill="#888888" d="M38.021,8.342h1.943v6.813h4.209v1.583h-6.152V8.342z"/>
	<path fill="#888888" d="M44.598,12.54c0-2.495,1.943-4.342,4.593-4.342c2.639,0,4.594,1.835,4.594,4.342
		c0,2.506-1.955,4.341-4.594,4.341C46.541,16.881,44.598,15.034,44.598,12.54z M51.818,12.54c0-1.596-1.127-2.687-2.627-2.687
		c-1.499,0-2.626,1.091-2.626,2.687c0,1.595,1.127,2.687,2.626,2.687C50.69,15.227,51.818,14.135,51.818,12.54z"/>
	<path fill="#888888" d="M66.349,8.342v8.396h-1.942v-3.442h-3.814v3.442h-1.943V8.342h1.943v3.311h3.814V8.342H66.349z"/>
	<path fill="#888888" d="M73.874,14.938h-3.897l-0.744,1.799h-1.99l3.741-8.396h1.919l3.754,8.396h-2.039L73.874,14.938z
		 M73.262,13.463l-1.33-3.214L70.6,13.463H73.262z"/>
	<path fill="#888888" d="M83.09,12.407h1.775v3.406c-0.924,0.696-2.195,1.067-3.395,1.067c-2.639,0-4.582-1.811-4.582-4.341
		c0-2.531,1.943-4.342,4.618-4.342c1.476,0,2.698,0.504,3.514,1.451l-1.247,1.151c-0.611-0.647-1.319-0.947-2.171-0.947
		c-1.631,0-2.747,1.091-2.747,2.687c0,1.57,1.116,2.687,2.723,2.687c0.528,0,1.02-0.097,1.512-0.36V12.407z"/>
	<path fill="#888888" d="M86.141,12.54c0-2.495,1.943-4.342,4.594-4.342c2.639,0,4.594,1.835,4.594,4.342
		c0,2.506-1.955,4.341-4.594,4.341C88.084,16.881,86.141,15.034,86.141,12.54z M93.361,12.54c0-1.596-1.127-2.687-2.627-2.687
		c-1.499,0-2.627,1.091-2.627,2.687c0,1.595,1.128,2.687,2.627,2.687C92.234,15.227,93.361,14.135,93.361,12.54z"/>
</g>
<polygon fill="#888888" points="99.574,9.568 102.756,12.75 99.574,15.932 100.813,17.169 103.993,13.986 105.23,12.75 
	103.993,11.513 100.813,8.331 "/>
</svg>
